<svg width="293" height="101" viewBox="0 0 293 101" fill="none" xmlns="http://www.w3.org/2000/svg">
<path d="M223.46 47.2676C220.373 47.2642 217.368 48.2656 214.899 50.1211V33H209.201V75.8028H212.034L214.883 72.9493C217.346 74.8292 220.364 75.8333 223.46 75.8028C227.238 75.8028 230.861 74.2996 233.532 71.6239C236.203 68.9482 237.704 65.3192 237.704 61.5352C237.704 57.7512 236.203 54.1222 233.532 51.4465C230.861 48.7708 227.238 47.2676 223.46 47.2676ZM229.443 67.6386C228.239 68.8158 226.716 69.6119 225.064 69.9276C223.412 70.2432 221.703 70.0643 220.152 69.4133C218.601 68.7622 217.275 67.6679 216.341 66.2668C215.406 64.8658 214.905 63.2201 214.899 61.5352C214.893 60.1192 215.238 58.7238 215.902 57.4738C216.566 56.2237 217.529 55.1579 218.705 54.3713C219.88 53.5848 221.232 53.102 222.639 52.9661C224.046 52.8303 225.465 53.0455 226.769 53.5927C228.072 54.1398 229.221 55.0019 230.111 56.1018C231.001 57.2018 231.606 58.5054 231.871 59.8964C232.135 61.2874 232.052 62.7224 231.629 64.0733C231.205 65.4243 230.454 66.6492 229.443 67.6386Z" fill="white"/>
<path d="M247.944 53.0059H242.23V70.1587H247.944V53.0059Z" fill="white"/>
<path d="M258.769 40.1494H253.071V82.9998H253.942H258.769V40.1494Z" fill="white"/>
<path d="M288.838 51.4528C286.848 49.4436 284.307 48.0724 281.538 47.5135C278.769 46.9546 275.896 47.2332 273.285 48.314C270.674 49.3948 268.443 51.2289 266.875 53.5832C265.308 55.9374 264.475 58.7054 264.481 61.5352C264.481 63.4089 264.85 65.2642 265.566 66.9952C266.281 68.7262 267.331 70.2991 268.653 71.624C269.976 72.9488 271.546 73.9998 273.274 74.7168C275.002 75.4338 276.854 75.8028 278.725 75.8028C280.595 75.8028 282.448 75.4338 284.176 74.7168C285.904 73.9998 287.474 72.9488 288.796 71.624C290.119 70.2991 291.168 68.7262 291.884 66.9952C292.6 65.2642 292.968 63.4089 292.968 61.5352C293.001 59.6616 292.651 57.8011 291.941 56.0675C291.23 54.3339 290.175 52.7636 288.838 51.4528ZM284.834 67.6386C283.636 68.8539 282.104 69.6835 280.432 70.021C278.761 70.3584 277.028 70.1885 275.453 69.5329C273.879 68.8773 272.536 67.7659 271.597 66.3411C270.657 64.9163 270.163 63.2429 270.179 61.5352C270.192 60.1306 270.549 58.7506 271.219 57.5165C271.889 56.2824 272.851 55.2321 274.021 54.4578C275.191 53.6835 276.533 53.209 277.929 53.0759C279.325 52.9428 280.732 53.1552 282.027 53.6945C283.322 54.2338 284.465 55.0834 285.355 56.1687C286.246 57.254 286.856 58.5418 287.133 59.9188C287.41 61.2958 287.346 62.7199 286.945 64.066C286.544 65.4121 285.819 66.6389 284.834 67.6386Z" fill="white"/>
<path d="M197.791 50.1367C195.951 48.7683 193.814 47.8557 191.555 47.4734H191.46L190.463 47.3625C190.052 47.3625 189.64 47.3625 189.213 47.3625C186.99 47.3151 184.789 47.8115 182.8 48.8088C180.812 49.806 179.096 51.274 177.802 53.0854C176.521 51.2577 174.813 49.7719 172.827 48.7577C170.841 47.7436 168.637 47.2319 166.408 47.2673C165.996 47.2673 165.569 47.2673 165.173 47.2673L164.176 47.3783C161.916 47.7576 159.779 48.6706 157.941 50.0416C157.383 50.4426 156.854 50.8823 156.358 51.3574C154.998 52.6747 153.923 54.2578 153.199 56.0085C152.475 57.7592 152.117 59.6402 152.148 61.5349V75.8025H157.862V61.2337C157.901 59.3768 158.59 57.5926 159.808 56.1925C159.951 56.0181 160.109 55.8596 160.267 55.6852L160.378 55.5584L160.789 55.2096L160.932 55.067C162.566 53.7451 164.629 53.0712 166.727 53.1735C168.825 53.2758 170.812 54.1472 172.311 55.6218V55.7011C173.125 56.4428 173.78 57.3422 174.237 58.345C174.694 59.3477 174.943 60.433 174.969 61.5349V75.8025H180.683V61.5349C180.656 60.422 180.859 59.3154 181.278 58.2844C181.697 57.2534 182.324 56.32 183.12 55.5426V55.4633C184.625 53.9538 186.638 53.0606 188.766 52.958C190.893 52.8554 192.982 53.5508 194.625 54.9084L194.768 55.0511L195.163 55.3999C195.192 55.4491 195.229 55.4922 195.274 55.5267C195.432 55.7011 195.591 55.8596 195.733 56.034C197.02 57.4639 197.75 59.3094 197.791 61.2337V75.8025H203.504V61.5349C203.535 59.6614 203.185 57.8012 202.475 56.0677C201.765 54.3342 200.709 52.7639 199.373 51.4525C198.881 50.973 198.352 50.5331 197.791 50.1367Z" fill="white"/>
<path d="M120.243 47.2676C117.156 47.2642 114.151 48.2656 111.682 50.1211V33H106V75.8028H108.849L111.697 72.9493C114.152 74.8225 117.158 75.8262 120.243 75.8028C122.121 75.8354 123.986 75.4822 125.723 74.7651C127.459 74.0481 129.031 72.9823 130.34 71.6335C131.682 70.3222 132.742 68.75 133.455 67.0134C134.168 65.2769 134.519 63.4126 134.487 61.5352C134.518 59.6503 134.164 57.7789 133.445 56.0366C132.727 54.2943 131.659 52.718 130.309 51.4052C129 50.0661 127.433 49.0084 125.702 48.297C123.971 47.5855 122.114 47.2353 120.243 47.2676ZM126.289 67.6227C125.504 68.4304 124.563 69.0702 123.524 69.5035C122.485 69.9367 121.369 70.1544 120.243 70.1433C118.55 70.1443 116.895 69.6417 115.488 68.6991C114.081 67.7566 112.985 66.4166 112.339 64.8491C111.693 63.2816 111.526 61.5572 111.86 59.8948C112.194 58.2323 113.013 56.7065 114.214 55.5111C114.999 54.7089 115.938 54.0736 116.974 53.6433C118.01 53.2129 119.122 52.9963 120.243 53.0063C122.509 53.0021 124.683 53.8973 126.291 55.4959C127.899 57.0945 128.809 59.2661 128.821 61.5352C128.839 62.6705 128.624 63.7975 128.192 64.847C127.759 65.8965 127.117 66.8464 126.305 67.6386L126.289 67.6227Z" fill="white"/>
<path d="M145.786 52.6416H140.073V69.7944H145.786V52.6416Z" fill="white"/>
<path d="M31.5435 37.2461H30.2871C31.1626 37.4809 32.0204 37.7769 32.8538 38.1319L33.9616 37.9977C33.1432 37.7883 32.3361 37.5374 31.5435 37.2461Z" fill="white"/>
<path d="M53.4421 73.7266L52.6855 73.8205C52.618 74.8808 52.4964 75.9143 52.3613 76.921L53.1314 76.8002C53.3205 75.5922 53.3745 74.9614 53.4421 73.7266Z" fill="white"/>
<path d="M53.4554 68.559C53.4554 67.351 53.3608 66.7471 53.2257 65.5928L52.4287 65.6733C52.5998 66.6307 52.6854 67.624 52.6854 68.653L53.4554 68.559Z" fill="white"/>
<path d="M49.5518 37.2863C50.6325 37.85 51.9294 38.4809 51.9294 38.4809H53.8341C53.564 38.2795 51.4025 37.2326 51.2674 37.1387C50.7135 37.1924 50.1191 37.2863 49.5518 37.2863Z" fill="white"/>
<path d="M41.2979 34.5888C42.5677 34.8706 44.2158 35.1525 44.2158 35.1525C44.8237 35.1525 45.7559 34.9646 46.3773 34.9377C46.3773 34.9377 43.9727 34.4411 43.5674 34.374C42.946 34.4277 41.8787 34.5485 41.2979 34.5888Z" fill="white"/>
<path d="M49.1867 88.7725L48.241 88.9201C47.7682 89.7254 47.2414 90.4905 46.6875 91.2555L47.5926 91.081C48.1669 90.3416 48.6991 89.5709 49.1867 88.7725Z" fill="white"/>
<path d="M37.083 40.2658C37.8521 40.7421 38.5961 41.2572 39.312 41.8093H40.4333C39.5282 41.1651 38.8122 40.6953 37.8395 40.1182L37.083 40.2658Z" fill="white"/>
<path d="M48.3765 50.8018H47.2822C47.7956 51.6473 48.2819 52.5063 48.7412 53.3922H49.8084C49.903 53.6875 48.3765 50.8018 48.3765 50.8018Z" fill="white"/>
<path d="M43.7023 44.749H42.5811C43.216 45.4067 43.8239 46.0912 44.4183 46.8294H45.5801C44.9958 46.0999 44.3688 45.4053 43.7023 44.749Z" fill="white"/>
<path d="M52.1997 81.7666L51.3351 81.874C51.0514 82.8001 50.7407 83.7262 50.376 84.5584H51.3351C51.6458 83.4578 51.8755 82.9075 52.1997 81.7666Z" fill="white"/>
<path d="M51.429 57.9561H50.6455C50.9697 58.8956 51.2534 59.8485 51.5101 60.8149H52.3612C52.1082 59.8443 51.7969 58.8897 51.429 57.9561Z" fill="white"/>
<path d="M44.5806 94.5977L43.6619 94.7856C42.9401 95.4492 42.1777 96.0678 41.3789 96.6378L42.3786 96.4499C43.1583 95.8882 43.8943 95.269 44.5806 94.5977Z" fill="white"/>
<path d="M63.6143 85.2424L64.5599 85.0679C64.6444 84.9337 64.7211 84.7948 64.7895 84.6518C65.0192 84.2089 65.2354 83.7525 65.4515 83.3096L65.6541 82.8398L64.695 82.9875C64.2897 83.9002 64.0871 84.3565 63.6143 85.2424Z" fill="white"/>
<path d="M59.4404 90.8262C59.9132 90.7323 60.278 90.6517 60.7913 90.5309L61.6289 89.5243C61.8586 89.2558 62.0477 88.9606 62.2638 88.6787L61.2912 88.8532C60.7212 89.5529 60.1028 90.2121 59.4404 90.8262Z" fill="white"/>
<path d="M66.1943 78.7329C66.5321 78.7329 66.8428 78.639 67.1805 78.5719C67.1805 78.3705 67.3021 78.1692 67.3561 77.9544C67.4642 77.4981 67.5723 77.0283 67.6668 76.6123L67.7884 75.9277L66.8563 76.0351C66.5996 77.0954 66.4645 77.6592 66.1943 78.7329Z" fill="white"/>
<path d="M67.64 68.3037C67.64 69.4446 67.64 70.0351 67.5049 71.1894L68.3154 71.0955C68.3154 70.7331 68.3154 70.3707 68.3154 70.0083C68.3154 69.6459 68.3154 69.0688 68.3154 68.6661V68.3171L67.64 68.3037Z" fill="white"/>
<path d="M53.3477 95.7924C53.8745 95.6582 54.5094 95.4569 55.0633 95.3227C55.8603 94.8529 57.3058 93.9805 57.3058 93.9805C56.752 94.0878 56.0495 94.1818 55.5902 94.2489C55.5902 94.1952 54.3879 95.0945 53.3477 95.7924Z" fill="white"/>
<path d="M64.8438 54.0898C65.2071 54.9322 65.5272 55.7923 65.8029 56.6669H66.6134C66.3433 55.8079 66.0461 54.9488 65.7083 54.1167L64.8438 54.0898Z" fill="white"/>
<path d="M57.6299 41.7158L56.4141 41.6084C57.2246 42.36 57.5894 42.7761 58.3188 43.568C58.3188 43.568 59.1159 43.7291 59.4941 43.7693C59.1969 43.4204 59.2104 43.4069 58.8997 43.0714C58.589 42.7358 57.9136 42.0111 57.6299 41.7158Z" fill="white"/>
<path d="M62.4258 47.6884L61.4531 47.5811C62.0475 48.4937 62.3312 48.9232 62.804 49.9299L63.7362 50.0104C63.4119 49.4064 63.0742 48.8024 62.696 48.2119L62.4258 47.6884Z" fill="white"/>
<path d="M67.721 61.043H67.0186C67.2087 61.9293 67.3485 62.8255 67.4373 63.7274H68.0993C68.106 63.6694 68.106 63.6108 68.0993 63.5529C67.9912 62.6402 67.8696 61.8349 67.721 61.043Z" fill="white"/>
<path d="M69.3151 67.7264C69.3151 66.9882 69.3151 66.2634 69.2205 65.5387C69.126 64.8139 69.1125 63.9951 69.0179 63.2435C68.9233 62.4919 68.8017 61.5389 68.6531 60.6933C68.464 59.5793 68.2209 58.4787 67.9372 57.405C67.0703 54.0843 65.7523 50.8964 64.0195 47.9291C63.4386 46.9224 62.8037 45.9561 62.1282 45.0031L62.0067 44.8286C61.4798 44.0904 60.9394 43.4059 60.3856 42.7482C59.8317 42.0906 59.494 41.7013 59.0347 41.2181C58.5754 40.7349 58.2376 40.4128 57.8324 40.0236C57.4271 39.6343 57.0758 39.3391 56.6976 39.0304C56.3193 38.7216 55.9816 38.4398 55.6169 38.1714C55.2521 37.9029 54.9279 37.6747 54.5767 37.4331L53.5229 36.7755L52.4692 36.2386C52.118 36.0507 51.7533 35.8762 51.3885 35.7151C51.0238 35.5541 50.6455 35.393 50.2672 35.2588C49.8829 35.1002 49.4906 34.9613 49.092 34.8427C48.6732 34.7085 48.2544 34.6011 47.8356 34.4937C47.4168 34.3864 46.917 34.279 46.4847 34.1985C46.0524 34.1179 45.4715 34.0374 44.9447 33.9837H44.8096C44.3367 33.9837 43.8774 33.9032 43.4587 33.8898C43.0399 33.8763 42.3914 33.8898 41.8646 33.8898L37.5146 34.4266C38.1457 34.6991 38.7438 35.0413 39.2979 35.4467C41.0405 35.7688 42.1753 35.8896 44.1071 36.2923C45.8363 36.1983 47.1602 35.8628 48.8488 35.7957C49.2135 35.9433 50.0646 36.3594 50.1997 36.4265C48.5651 36.4265 47.4979 36.5741 45.8227 36.6547C46.5477 37.2078 47.2421 37.7992 47.9032 38.4264C49.3754 38.8581 50.8154 39.3918 52.2126 40.0236C53.7256 40.0236 54.5631 40.0236 55.9005 40.0907L56.2653 40.386C56.522 40.6141 56.522 40.6276 56.7786 40.8692C55.5223 40.7618 54.7523 40.6813 53.3203 40.641C53.7931 41.3792 54.2389 42.0637 54.6712 42.8556C55.8219 43.4735 56.9119 44.197 57.9269 45.0165C59.1292 45.0971 59.7371 45.191 60.8314 45.3252L61.6554 46.4527C60.5882 46.3185 60.0073 46.2648 58.8185 46.1842C59.0752 47.0969 59.1968 47.5264 59.3994 48.5599C60.4801 49.58 60.9935 50.1169 61.9661 51.2443C63.0874 51.3114 63.6548 51.3517 64.5869 51.4591C64.8571 51.9825 65.1138 52.5194 65.3434 53.0563C65.3124 52.9736 65.2764 52.8929 65.2353 52.8147C64.3302 52.7207 63.7764 52.6805 62.6686 52.6268C62.7792 53.5176 62.8423 54.4137 62.8577 55.3111C63.5692 56.2106 64.2321 57.147 64.8436 58.1163C65.8703 58.1163 66.4241 58.1163 67.1266 58.1163C67.2437 58.5816 67.3518 59.029 67.4508 59.4585H65.2083C65.1649 60.4685 65.0429 61.4737 64.8436 62.465C65.3394 63.3605 65.7509 64.2996 66.0729 65.2702L68.2209 65.1494C68.2209 65.3373 68.2209 65.5252 68.2209 65.7266V66.6527L66.1945 66.8003C65.8297 68.0351 65.6136 68.666 65.1273 69.9411C65.4146 70.9339 65.6446 71.9421 65.8162 72.961L68.2479 72.7328C68.2479 73.0013 68.2479 73.2831 68.1668 73.5515C68.0858 73.82 68.0993 74.0213 68.0723 74.2629C67.1671 74.3703 66.6133 74.4374 65.5731 74.5313C65.0057 75.793 64.695 76.4104 64.0465 77.6452C64.1681 78.7727 64.2086 79.3364 64.2357 80.3296L66.7619 80.0343C66.7619 80.2088 66.6538 80.3833 66.5863 80.5578C66.5187 80.7323 66.4106 81.0544 66.3161 81.296C65.3569 81.4839 64.749 81.5913 63.7764 81.7255C63.1814 82.6776 62.5033 83.5758 61.75 84.4099C61.6242 85.1787 61.4573 85.9404 61.2502 86.6916L63.952 86.2218C63.7223 86.6111 63.4657 87.0003 63.209 87.3896L60.5072 87.8862C59.5038 88.7697 58.4531 89.5986 57.3595 90.3692C57.0169 91.0276 56.6334 91.6641 56.2113 92.2751C57.5622 91.9933 58.4403 91.8054 59.8722 91.5369L59.7506 91.6712C59.4399 91.9799 59.1292 92.2483 58.8185 92.5302C57.3595 92.8657 56.63 92.906 55.3061 93.1878C55.3061 93.1878 54.374 93.8858 53.0907 94.7582L51.1048 97.1473C51.4425 97.1473 58.3322 94.4629 59.7912 92.8254C60.1694 92.4228 61.9932 90.7719 62.3579 90.3424L63.1549 89.3357C63.5872 88.7452 64.006 88.1412 64.3978 87.5238C64.722 87.0137 65.0462 86.4769 65.3434 85.94L63.9925 86.1816L65.2759 85.94C65.5461 85.4568 65.7892 84.9736 66.0324 84.477C66.2485 84.0341 66.4647 83.5643 66.6538 83.1348C66.8429 82.7053 67.0185 82.249 67.1807 81.7926C67.3428 81.3363 67.4914 80.9202 67.64 80.4504C67.7886 79.9807 67.9101 79.578 68.0317 79.1082C68.1533 78.6385 68.2614 78.2224 68.3695 77.766C68.4775 77.3097 68.5721 76.8399 68.6667 76.4238C68.7612 76.0078 68.8423 75.444 68.9098 74.9608C68.9774 74.4777 69.0584 73.9139 69.1125 73.3905C69.1665 72.867 69.2205 72.263 69.2611 71.6993C69.3016 71.1356 69.3421 70.4645 69.3556 69.8337C69.3691 69.2028 69.3556 68.8941 69.3556 68.411L69.3151 67.7264ZM44.2152 35.1514C44.2152 35.1514 42.5671 34.8696 41.2972 34.5877C41.9051 34.5877 42.9453 34.4266 43.5667 34.3729C43.972 34.4401 46.3766 34.9367 46.3766 34.9367C45.7552 34.9635 44.8231 35.1112 44.2152 35.1514ZM51.9289 38.4801C51.9289 38.4801 50.578 37.8492 49.5513 37.2855C50.1186 37.2855 50.713 37.1915 51.2669 37.1915C51.402 37.2721 53.5635 38.319 53.8337 38.5337L51.9289 38.4801ZM58.3187 43.567C57.5892 42.7751 57.2244 42.359 56.4139 41.6074L57.6297 41.7147C57.9134 42.01 58.6294 42.7482 58.8996 43.0569C59.1698 43.3656 59.1968 43.4059 59.494 43.7549C59.1157 43.728 58.3187 43.567 58.3187 43.567ZM62.8712 49.929C62.3309 48.9626 62.0472 48.4928 61.5203 47.5801L62.493 47.6875L62.8307 48.2109C63.209 48.8015 63.5467 49.4055 63.8709 50.0095L62.8712 49.929ZM65.8297 56.6399C65.5443 55.774 65.2152 54.9228 64.8436 54.0898L65.7082 54.1569C66.0459 54.989 66.3431 55.848 66.6133 56.707L65.8297 56.6399ZM67.4373 63.6327C67.3485 62.7309 67.2087 61.8346 67.0185 60.9484H67.721C67.8696 61.7403 67.9912 62.5456 68.0858 63.3509C68.0925 63.4089 68.0925 63.4674 68.0858 63.5254L67.4373 63.6327ZM55.063 95.2951C54.5091 95.4293 53.8742 95.6306 53.3473 95.7648C54.3875 95.0669 55.5898 94.1676 55.5898 94.1676C56.0491 94.1005 56.7516 94.0066 57.3055 93.8992C57.3055 93.9529 55.86 94.8521 55.063 95.2951ZM61.6419 89.4565L60.8044 90.4632C60.345 90.584 59.9803 90.6645 59.4534 90.7585C60.1126 90.131 60.7265 89.4582 61.2907 88.7452L62.2768 88.5841C62.0607 88.9197 61.8716 89.2149 61.6419 89.4834V89.4565ZM65.4785 83.2556C65.2624 83.7254 65.0462 84.1817 64.8166 84.5978C64.7481 84.7408 64.6714 84.8797 64.5869 85.0139L63.6413 85.1884C64.1141 84.3025 64.3167 83.8462 64.749 82.9066L65.7082 82.759L65.4785 83.2556ZM67.64 76.5446C67.5454 77.0144 67.4373 77.4842 67.3293 77.8868C67.3293 78.1016 67.2077 78.3029 67.1536 78.5042C66.8159 78.5714 66.5052 78.625 66.1675 78.6653C66.4647 77.5916 66.5998 77.0278 66.8294 75.9809L67.7615 75.8735L67.64 76.5446ZM68.3695 69.9947C68.3695 70.3571 68.3695 70.7195 68.3695 71.0819L67.5454 71.1356C67.64 69.9813 67.667 69.3908 67.6805 68.2499H68.437V68.5989C68.3965 69.0686 68.383 69.5384 68.3695 70.0082V69.9947Z" fill="white"/>
<path d="M39.9735 97.6445L43.4588 96.9868C44.6448 96.3596 45.7908 95.6603 46.8901 94.893C47.2103 94.2954 47.4989 93.6817 47.7547 93.0542L44.6882 93.6448C44.8503 93.4703 45.0124 93.3227 45.1745 93.1348C45.3366 92.9468 45.5122 92.7053 45.6878 92.4905L48.7544 91.9268C50.0107 90.9201 50.6322 90.4101 51.902 89.3229C52.1133 88.565 52.2402 87.7864 52.2803 87.0009C50.9294 87.2425 50.1864 87.3633 49.0111 87.5378C49.2542 87.0815 49.4839 86.6251 49.7135 86.1956C50.9023 86.0077 51.6183 85.9003 53.0098 85.6587C53.9649 84.7386 54.7673 83.674 55.3874 82.5046C55.2253 81.4308 55.1172 80.8805 54.8605 79.7397C53.7122 79.9947 52.8341 80.1155 51.7264 80.2765C51.848 79.7531 51.9696 79.2028 52.0776 78.6525C53.0882 78.5397 54.0901 78.3603 55.0767 78.1156C55.6163 76.9351 56.2346 75.7917 56.9274 74.693C56.5086 73.485 56.2655 72.8676 55.7386 71.6462C54.3877 71.8073 53.7122 71.9281 52.7396 72.0757C52.7396 71.7536 52.7396 71.4449 52.7396 71.1228C52.7396 70.8007 52.7396 70.6262 52.7396 70.3846C53.7257 70.2504 54.3877 70.1296 55.7656 69.9953C56.3465 68.6532 56.6032 67.9821 57.1165 66.707C56.5899 65.7165 56.0128 64.7533 55.3874 63.8213L52.2397 64.0494C52.1452 63.526 52.0371 63.0025 51.929 62.4925L55.1307 62.2912C55.424 61.2664 55.663 60.227 55.8467 59.1773C55.0548 58.1573 54.1926 57.193 53.2664 56.2916L50.0513 56.3721C49.8531 55.871 49.637 55.3744 49.4028 54.8823L52.5234 54.7615C52.5234 53.5803 52.5234 53.0032 52.5234 51.8892C51.1725 50.8288 50.0783 50.3859 48.984 49.3256C48.0841 49.2785 47.1822 49.2785 46.2822 49.3256C45.985 48.8961 45.6878 48.4532 45.3771 47.9834C46.2753 47.9027 47.1775 47.8758 48.0789 47.9029C47.8088 46.9096 47.6737 46.4264 47.3765 45.5272C46.3431 44.7092 45.2191 44.0112 44.0262 43.4468L41.5135 43.581C41.1623 43.2454 40.811 42.9233 40.4463 42.6146L42.8509 42.467C42.5025 41.826 42.1003 41.2154 41.6486 40.6416C40.0815 40.0108 39.298 39.7155 37.758 39.1786L35.7046 39.3128C35.2588 39.0712 34.7995 38.8296 34.3537 38.6149L36.38 38.4807C35.8578 38.0245 35.3025 37.6073 34.7184 37.2324C33.4201 36.9123 32.1025 36.6747 30.7738 36.5211L28.5177 36.8029C28.0719 36.7358 27.6126 36.6553 27.1668 36.6016L29.3553 36.2795C28.7961 36.0931 28.2148 35.9803 27.6261 35.9439L26.6535 36.0916V0.805316L26.3022 0.872425L26.6535 0.805316L16.1299 0L0 2.75149V4.02658L5.60628 4.56346L10.2669 4.99296V43.5542L11.2801 42.7354C13.337 40.9905 15.7246 39.6723 18.3022 38.8586C20.8799 38.0449 23.5954 37.7521 26.2887 37.9975C33.2189 38.6283 39.217 42.1985 44.1073 48.6142C49.0486 55.1305 51.6587 63.0994 51.5238 71.257C51.5238 79.8068 49.0786 86.9472 44.1883 92.4905C39.298 98.0338 33.4891 100.477 26.4779 99.8323C20.7061 99.1905 15.3641 96.4915 11.4422 92.2355L10.9694 91.7657L5.56576 97.8727L0.162109 97.4432V98.4901L6.18717 99.0404L15.9272 97.2553C19.0982 99.2937 22.7176 100.541 26.4779 100.893C27.313 100.97 28.1519 101.002 28.9906 100.987C30.0962 100.966 31.1984 100.859 32.2868 100.664L35.7046 100.087C37.8255 99.7383 39.244 99.4967 40.8921 99.188C41.3889 98.7893 41.8417 98.3394 42.243 97.8458L38.501 98.5304C38.9873 98.2619 39.4871 97.9801 39.9735 97.6445ZM53.2259 65.593C53.361 66.7472 53.4015 67.3512 53.4556 68.5592L52.7126 68.6532C52.6946 67.6241 52.6 66.6309 52.4289 65.6735L53.2259 65.593ZM52.6855 73.8206L53.4015 73.7132C53.334 74.948 53.28 75.5789 53.1314 76.8003L52.3613 76.9211C52.5369 75.9278 52.6855 74.8943 52.6855 73.8206ZM32.8542 38.1451C32.0207 37.7901 31.163 37.494 30.2874 37.2593H31.5438C32.3362 37.5551 33.1433 37.8105 33.9619 38.0243L32.8542 38.1451ZM39.3115 41.7959C38.5953 41.2484 37.8513 40.7377 37.0825 40.2658L37.839 40.1047C38.8117 40.6819 39.5277 41.1516 40.4328 41.7959H39.3115ZM42.5807 44.7755H43.702C44.3689 45.4361 44.9959 46.1353 45.5798 46.8694H44.418C43.8236 46.1177 43.2292 45.4332 42.5807 44.7755ZM47.2819 50.8154H48.4302C48.4302 50.8154 49.9567 53.6474 49.7811 53.3924H48.7139C48.2275 52.52 47.7412 51.661 47.2819 50.8154ZM51.5643 60.855C51.3076 59.8886 51.0239 58.9357 50.6997 57.9961H51.4832C51.8506 58.9254 52.1619 59.8755 52.4154 60.8416L51.5643 60.855ZM51.3346 81.8737L52.2127 81.7261C51.8885 82.867 51.6589 83.4173 51.2806 84.491L50.3755 84.6118C50.7267 83.7662 51.0374 82.8401 51.3346 81.8737ZM48.2546 88.88L49.2002 88.7324C48.7126 89.5308 48.1804 90.3015 47.6061 91.0409L46.701 91.2154C47.2819 90.4906 47.7682 89.7256 48.241 88.9203L48.2546 88.88ZM43.6074 94.7454L44.526 94.5575C43.8624 95.2355 43.149 95.8636 42.3916 96.4365L41.3919 96.6244C42.1625 96.0561 42.8979 95.4421 43.5939 94.7857L43.6074 94.7454Z" fill="white"/>
<path d="M26.3973 88.3831C28.4496 88.5727 30.518 88.2776 32.4338 87.5218C34.3495 86.7661 36.0583 85.5711 37.4207 84.0344L36.1373 83.2156L35.4484 82.7727C35.2187 82.5982 34.9756 82.4371 34.7459 82.2492C34.5163 82.0613 34.2596 81.86 34.0164 81.6453C33.7733 81.4305 33.4896 81.1755 33.2329 80.9205C32.9762 80.6655 32.6385 80.3299 32.3548 80.0078C32.0711 79.6856 31.6658 79.2025 31.3416 78.773L31.2606 78.6656C30.8354 78.1178 30.4386 77.5489 30.0718 76.961C28.957 75.1811 28.1062 73.2509 27.5455 71.2298C27.3564 70.5722 27.2078 69.8876 27.0727 69.23C26.9376 68.5723 26.9106 68.2367 26.8431 67.7267C26.7755 67.2167 26.7485 66.8274 26.7215 66.3845C26.6945 65.9416 26.7215 65.5389 26.7215 65.1229V64.7336C26.7215 64.4652 26.7215 64.1967 26.7215 63.9283C26.7215 63.6599 26.7215 63.2035 26.7215 62.8546C26.7215 62.5056 26.7215 62.1835 26.8161 61.8613C26.9106 61.5392 26.8971 61.2439 26.9376 60.9352L27.0997 60.0494C27.0997 59.7675 27.2213 59.4856 27.2889 59.2172C27.3564 58.9488 27.4375 58.6535 27.5185 58.3851C27.5996 58.1166 27.6806 57.8482 27.7752 57.5797C27.8698 57.3113 27.9643 57.0429 28.0724 56.7744C28.1805 56.506 28.2885 56.2241 28.4101 55.9557C28.5317 55.6872 28.6803 55.392 28.8289 55.1101C28.9775 54.8282 29.1396 54.5195 29.3152 54.2377C29.4909 53.9558 29.707 53.5934 29.9232 53.2847C30.1393 52.976 30.4365 52.5599 30.7202 52.211L31.0309 51.8352L31.8279 50.8822C30.1543 49.9892 28.3163 49.4414 26.4243 49.2716C24.2661 49.0648 22.09 49.3974 20.0941 50.2389C18.0981 51.0804 16.3455 52.4042 14.9956 54.09C11.808 57.8279 10.1452 62.6164 10.3349 67.512C10.2694 72.6082 11.914 77.5809 15.0091 81.6453C16.3078 83.5161 17.9975 85.0866 19.9629 86.2494C21.9282 87.4122 24.123 88.1399 26.3973 88.3831Z" fill="white"/>
<path d="M54.3475 93.121C54.9285 92.3566 55.4566 91.5539 55.9281 90.7185C57.2963 89.7362 58.6045 88.674 59.8457 87.5375C60.1864 86.6088 60.4441 85.6522 60.6157 84.6786C61.5807 83.6083 62.4276 82.4384 63.1419 81.1889C63.1259 80.0395 63.0402 78.8921 62.8853 77.7529C63.6823 76.2094 64.0741 75.4175 64.763 73.8203C64.5622 72.536 64.2734 71.2669 63.8984 70.0218C64.417 68.7397 64.8679 67.4315 65.2493 66.1026C64.8444 64.8672 64.3149 63.6755 63.6688 62.5458C63.9255 61.344 64.0792 60.1227 64.1281 58.8951C63.3452 57.654 62.4928 56.4575 61.5749 55.3114C61.5599 54.1619 61.4742 53.0145 61.3182 51.8754C60.32 50.6811 59.2412 49.5556 58.0895 48.5065C57.9084 47.5037 57.6648 46.513 57.36 45.5403C56.0829 44.4877 54.6865 43.5868 53.1992 42.8559C52.7414 42.0383 52.2268 41.2535 51.6592 40.507C49.9125 39.7067 48.1058 39.0426 46.2555 38.5206C45.6258 37.8903 44.9384 37.3196 44.2021 36.816C42.2634 36.306 40.2906 35.9338 38.2987 35.702C37.4662 35.3039 36.5978 34.9848 35.7049 34.749L34.0703 35.0309C34.8552 35.231 35.6161 35.5145 36.3398 35.8765C38.345 36.1003 40.3345 36.4454 42.2974 36.91C42.9839 37.4137 43.6257 37.975 44.2157 38.5877C46.1698 39.1161 48.0913 39.757 49.9705 40.507C50.4799 41.2481 50.9358 42.024 51.335 42.829C52.9433 43.538 54.4586 44.4395 55.847 45.5134C56.1127 46.4982 56.3202 47.4976 56.4684 48.5065C57.715 49.5248 58.8844 50.6329 59.9673 51.8217C60.084 52.9811 60.1246 54.1468 60.0889 55.3114C61.0592 56.4571 61.9614 57.6582 62.7907 58.9085C62.6878 60.1558 62.4707 61.3913 62.1423 62.5995C62.8452 63.7303 63.4465 64.9205 63.939 66.1563C63.4256 67.6999 63.1284 68.5052 62.48 70.1829C62.9011 71.4028 63.2396 72.6494 63.4932 73.9142C62.7502 75.5248 62.3584 76.3167 61.5073 77.9408C61.7204 79.077 61.8692 80.2241 61.9531 81.3768C61.1953 82.6672 60.2886 83.8654 59.2513 84.947C59.1142 85.9381 58.8649 86.9106 58.5083 87.8462C57.0088 89.1884 56.1442 89.8326 54.4556 91.1211C54.1471 91.7485 53.7808 92.3461 53.3613 92.9062L51.0648 94.7182L48.1738 97.9797L49.7274 97.6442L52.0104 94.9598L54.3475 93.121Z" fill="white"/>
<path d="M52.5508 93.0004C52.5508 93.0004 52.9831 92.3159 53.5369 91.3092C55.1716 89.967 56.0496 89.3362 57.5897 87.994C57.9643 87.0568 58.2273 86.0793 58.3732 85.0814C59.4109 83.9806 60.3175 82.7646 61.075 81.4575C60.9882 80.2948 60.8304 79.1384 60.6022 77.9947C61.4533 76.4243 61.8315 75.619 62.561 73.9681C62.2918 72.6751 61.9352 71.4016 61.4938 70.1563C62.1287 68.5456 62.4259 67.7403 62.9258 66.1297C62.4107 64.8969 61.7963 63.7074 61.0885 62.5729C61.4307 61.3431 61.6612 60.0854 61.7775 58.8147C60.952 57.5575 60.0497 56.3518 59.0757 55.2042C59.1178 54.0307 59.0772 52.8556 58.9541 51.6877C57.8411 50.5381 56.6494 49.4662 55.3877 48.4798C55.2351 47.4618 55.0231 46.4535 54.7528 45.4599C53.2691 44.4093 51.669 43.5312 49.9841 42.8426C49.5392 42.0143 49.0192 41.2281 48.4305 40.4938C46.215 39.6482 44.7425 39.2992 42.8107 38.5745C42.2331 37.959 41.6001 37.3974 40.9194 36.8967C38.9805 36.4478 37.0124 36.1339 35.0295 35.9572C34.3303 35.6092 33.5907 35.3478 32.8275 35.1787L31.4766 35.4203C32.1836 35.566 32.869 35.8006 33.5164 36.1182C35.5698 36.3733 36.6641 36.5746 39.0282 37.0444C39.7444 37.5267 40.4098 38.0798 41.014 38.6953C43.2565 39.3261 44.1886 39.7287 46.5257 40.5475C47.0561 41.287 47.5087 42.0785 47.8766 42.9097C49.6658 43.5812 51.3777 44.4406 52.9831 45.4733C53.2169 46.4736 53.3929 47.4864 53.5099 48.5067C54.8812 49.492 56.1689 50.5873 57.36 51.7816C57.4409 52.9614 57.4409 54.1453 57.36 55.325C58.4209 56.4673 59.4047 57.6779 60.305 58.9489C60.1356 60.2433 59.8462 61.5193 59.4404 62.7608C60.189 63.9062 60.8701 65.0938 61.4803 66.3176C60.9264 67.8879 60.6157 68.6933 59.9268 70.3442C60.4369 71.5846 60.8612 72.8581 61.1966 74.156C60.4266 75.78 60.0213 76.5988 59.1162 78.1826C59.4009 79.3231 59.6174 80.4795 59.7647 81.6454C58.8974 83.0003 57.8826 84.2561 56.7386 85.3901C56.6793 86.3864 56.4699 87.3682 56.1172 88.3027C54.9538 89.3199 53.7362 90.2743 52.4697 91.1616L49.3086 94.8794L46.931 97.0806L45.9448 98.3155L47.4173 98.0604L48.2684 97.0538L52.5508 93.0004Z" fill="white"/>
<path d="M50.9834 91.8863C52.6856 90.638 53.5907 89.9267 55.1307 88.5845C55.4751 87.6448 55.6711 86.6578 55.7116 85.6585C56.8419 84.4977 57.8554 83.2301 58.7376 81.8735C58.5834 80.6865 58.367 79.5082 58.0892 78.3436C59.0213 76.7195 59.4401 75.8873 60.1966 74.317C59.8238 73.0206 59.3727 71.7476 58.8457 70.5052C59.5212 68.8543 59.8184 68.0355 60.3452 66.4786C59.7253 65.253 59.0398 64.0612 58.2918 62.9083C58.703 61.6538 58.9969 60.3644 59.1699 59.0563C58.2682 57.7826 57.2797 56.5718 56.2114 55.4323C56.2861 54.2434 56.2861 53.051 56.2114 51.8621C54.9972 50.6588 53.672 49.5713 52.2533 48.614C52.1233 47.5884 51.9339 46.5711 51.6859 45.5672C50.0048 44.5276 48.2269 43.6512 46.3768 42.9499C46.0141 42.1162 45.5611 41.3241 45.0259 40.5877C42.6888 39.7689 41.9728 39.4066 39.8654 38.7623C39.2258 38.1561 38.5291 37.6122 37.785 37.1382C36.0507 36.7457 34.2965 36.4455 32.5299 36.239C31.8801 35.9394 31.1947 35.7229 30.4901 35.5947C29.9497 35.7021 29.5579 35.7424 29.0176 35.8497C29.745 35.9289 30.4559 36.1191 31.125 36.4135C32.8234 36.5849 34.5073 36.8764 36.1639 37.2859C36.8935 37.7676 37.5764 38.3158 38.2038 38.9234C40.2166 39.5676 41.2433 39.93 43.3507 40.7085C43.8795 41.4442 44.3321 42.2312 44.7017 43.0573C46.5659 43.9834 47.5251 44.5337 49.5785 45.6075C49.7969 46.6179 49.9593 47.6395 50.0648 48.6677C51.6188 49.5901 53.076 50.6648 54.4147 51.8755C54.4609 53.0751 54.4339 54.2763 54.3337 55.4726C55.4843 56.587 56.5499 57.7849 57.5218 59.0563C57.3062 60.3725 56.9855 61.6695 56.5627 62.9352C57.4813 64.4116 57.9811 65.0424 58.7782 66.5188C58.1973 68.1026 57.8866 68.9214 57.1571 70.5454C57.7196 71.7921 58.2112 73.0692 58.6296 74.3707C57.9458 75.8118 57.1743 77.2103 56.3195 78.5583C56.7383 80.0079 56.9004 80.7058 57.1706 82.0346C56.2413 83.4407 55.1928 84.7653 54.0365 85.9941C54.0242 86.9861 53.8696 87.9714 53.5772 88.92C51.902 90.2622 51.0915 90.9602 49.5244 92.2084L47.8358 94.8928L44.472 97.2014L42.6348 98.9596L44.8232 98.5704C45.4447 97.953 45.877 97.4698 45.877 97.4698L48.9435 94.866L50.9834 91.8863Z" fill="white"/>
<path d="M77.7581 100.987C80.653 100.987 82.9997 98.6551 82.9997 95.779C82.9997 92.9029 80.653 90.5713 77.7581 90.5713C74.8633 90.5713 72.5166 92.9029 72.5166 95.779C72.5166 98.6551 74.8633 100.987 77.7581 100.987Z" fill="white"/>
</svg>
