<svg width="142" height="38" viewBox="0 0 142 38" fill="none" xmlns="http://www.w3.org/2000/svg">
<g clip-path="url(#clip0_463_90718)">
<path d="M89.1946 10.8158C86.8503 10.8132 84.5686 11.5724 82.6931 12.979V0H78.3668V32.4475H80.5179L82.6811 30.2844C84.5514 31.7095 86.8434 32.4706 89.1946 32.4475C92.0632 32.4475 94.8142 31.308 96.8426 29.2796C98.871 27.2513 100.01 24.5002 100.01 21.6317C100.01 18.7631 98.871 16.0121 96.8426 13.9837C94.8142 11.9554 92.0632 10.8158 89.1946 10.8158ZM93.7373 26.2585C92.8235 27.1509 91.6671 27.7544 90.4125 27.9937C89.1578 28.233 87.8605 28.0974 86.6824 27.6038C85.5044 27.1103 84.4978 26.2807 83.7883 25.2186C83.0788 24.1565 82.6979 22.9089 82.6931 21.6317C82.6891 20.5582 82.9509 19.5005 83.4552 18.5529C83.9595 17.6052 84.6906 16.7972 85.5833 16.201C86.4759 15.6047 87.5023 15.2387 88.5708 15.1357C89.6393 15.0327 90.7167 15.1959 91.7068 15.6107C92.6968 16.0255 93.5688 16.679 94.2449 17.5128C94.9209 18.3466 95.3799 19.3349 95.581 20.3894C95.7821 21.4438 95.719 22.5317 95.3973 23.5558C95.0755 24.5799 94.5052 25.5084 93.7373 26.2585Z" fill="url(#paint0_linear_463_90718)"/>
<path d="M107.786 15.1662H103.448V28.1693H107.786V15.1662Z" fill="url(#paint1_linear_463_90718)"/>
<path d="M116.006 5.41994H111.68V37.9035H116.006V5.41994Z" fill="url(#paint2_linear_463_90718)"/>
<path d="M138.839 13.9885C137.329 12.4654 135.399 11.4259 133.296 11.0022C131.193 10.5785 129.012 10.7898 127.029 11.6091C125.047 12.4284 123.352 13.8188 122.162 15.6035C120.972 17.3881 120.339 19.4865 120.344 21.6317C120.344 23.052 120.624 24.4585 121.168 25.7707C121.711 27.083 122.508 28.2753 123.512 29.2796C124.516 30.284 125.709 31.0807 127.021 31.6242C128.333 32.1678 129.74 32.4475 131.16 32.4475C132.58 32.4475 133.987 32.1678 135.299 31.6242C136.611 31.0807 137.804 30.284 138.808 29.2796C139.812 28.2753 140.609 27.083 141.153 25.7707C141.696 24.4585 141.976 23.052 141.976 21.6317C142 20.2113 141.735 18.8009 141.196 17.4867C140.656 16.1725 139.855 14.9822 138.839 13.9885ZM135.799 26.2585C134.889 27.1798 133.726 27.8086 132.457 28.0645C131.188 28.3203 129.871 28.1915 128.676 27.6945C127.481 27.1975 126.461 26.355 125.747 25.2749C125.034 24.1947 124.659 22.9262 124.671 21.6317C124.68 20.5668 124.951 19.5207 125.46 18.5852C125.969 17.6497 126.7 16.8535 127.588 16.2665C128.477 15.6795 129.496 15.3198 130.556 15.2189C131.616 15.118 132.685 15.279 133.668 15.6878C134.651 16.0967 135.519 16.7407 136.195 17.5635C136.871 18.3862 137.335 19.3624 137.545 20.4063C137.756 21.4502 137.706 22.5298 137.402 23.5502C137.097 24.5706 136.547 25.5006 135.799 26.2585Z" fill="url(#paint3_linear_463_90718)"/>
<path d="M69.7021 12.991C68.3053 11.9537 66.6827 11.2618 64.9672 10.9721H64.8951L64.138 10.8879C63.8255 10.8879 63.513 10.8879 63.1886 10.8879C61.5004 10.852 59.829 11.2284 58.3191 11.9844C56.8092 12.7403 55.5065 13.8531 54.5239 15.2263C53.5511 13.8408 52.254 12.7145 50.7457 11.9457C49.2374 11.1769 47.5639 10.789 45.8712 10.8158C45.5587 10.8158 45.2343 10.8158 44.9338 10.8158L44.1767 10.9C42.4605 11.1875 40.8374 11.8796 39.4418 12.9189C39.0184 13.2229 38.6168 13.5562 38.24 13.9164C37.2074 14.915 36.3908 16.1151 35.8409 17.4423C35.291 18.7694 35.0196 20.1953 35.0433 21.6317V32.4475H39.3817V21.4033C39.4114 19.9956 39.9346 18.6431 40.8599 17.5818C40.968 17.4496 41.0882 17.3294 41.2084 17.1972L41.2925 17.101L41.6049 16.8367L41.7131 16.7285C42.9542 15.7264 44.5203 15.2156 46.1135 15.2931C47.7068 15.3707 49.2159 16.0312 50.3538 17.1491V17.2092C50.9719 17.7715 51.4696 18.4533 51.8166 19.2135C52.1636 19.9736 52.3528 20.7963 52.3727 21.6317V32.4475H56.7111V21.6317C56.6909 20.788 56.8448 19.9491 57.1632 19.1676C57.4816 18.386 57.9577 17.6784 58.5618 17.089V17.0289C59.7048 15.8847 61.2334 15.2075 62.8489 15.1298C64.4644 15.052 66.0509 15.5791 67.2986 16.6083L67.4067 16.7165L67.7072 16.9809C67.7286 17.0182 67.7572 17.0509 67.7913 17.077C67.9115 17.2092 68.0317 17.3294 68.1398 17.4616C69.1166 18.5455 69.6711 19.9445 69.7021 21.4033V32.4475H74.0405V21.6317C74.0643 20.2114 73.7984 18.8012 73.2591 17.4871C72.7199 16.173 71.9185 14.9826 70.9039 13.9885C70.5301 13.625 70.1282 13.2915 69.7021 12.991Z" fill="url(#paint4_linear_463_90718)"/>
<path d="M10.8158 10.8158C8.47151 10.8132 6.18979 11.5724 4.31432 12.979V9.49358e-07H0V32.4475H2.16317L4.32634 30.2844C6.19013 31.7044 8.47277 32.4653 10.8158 32.4475C12.2419 32.4722 13.658 32.2045 14.9766 31.6609C16.2953 31.1173 17.4886 30.3094 18.4831 29.2869C19.5019 28.2928 20.3068 27.101 20.8482 25.7846C21.3897 24.4681 21.6563 23.0549 21.6317 21.6317C21.6557 20.2028 21.3866 18.7842 20.8409 17.4634C20.2953 16.1426 19.4846 14.9477 18.459 13.9524C17.4653 12.9373 16.275 12.1355 14.9608 11.5962C13.6466 11.0569 12.2362 10.7913 10.8158 10.8158ZM15.4066 26.2464C14.8103 26.8588 14.096 27.3438 13.307 27.6722C12.5179 28.0006 11.6705 28.1656 10.8158 28.1572C9.53032 28.158 8.27352 27.777 7.20487 27.0625C6.13621 26.3479 5.30385 25.3321 4.81335 24.1438C4.32285 22.9556 4.19632 21.6484 4.4498 20.3881C4.70329 19.1278 5.32537 17.9712 6.23714 17.065C6.83345 16.4569 7.54629 15.9753 8.33301 15.6491C9.11974 15.3228 9.96419 15.1586 10.8158 15.1662C12.536 15.163 14.1873 15.8416 15.4082 17.0535C16.629 18.2653 17.3198 19.9115 17.3294 21.6317C17.3427 22.4924 17.1801 23.3467 16.8515 24.1423C16.5229 24.9379 16.0353 25.658 15.4186 26.2585L15.4066 26.2464Z" fill="url(#paint5_linear_463_90718)"/>
<path d="M30.2122 14.8898H25.8739V27.8929H30.2122V14.8898Z" fill="url(#paint6_linear_463_90718)"/>
</g>
<defs>
<linearGradient id="paint0_linear_463_90718" x1="0" y1="0" x2="141.977" y2="0" gradientUnits="userSpaceOnUse">
<stop stop-color="#30FBBA"/>
<stop offset="1" stop-color="#0492FD"/>
</linearGradient>
<linearGradient id="paint1_linear_463_90718" x1="0" y1="0" x2="141.977" y2="0" gradientUnits="userSpaceOnUse">
<stop stop-color="#30FBBA"/>
<stop offset="1" stop-color="#0492FD"/>
</linearGradient>
<linearGradient id="paint2_linear_463_90718" x1="0" y1="0" x2="141.977" y2="0" gradientUnits="userSpaceOnUse">
<stop stop-color="#30FBBA"/>
<stop offset="1" stop-color="#0492FD"/>
</linearGradient>
<linearGradient id="paint3_linear_463_90718" x1="0" y1="0" x2="141.977" y2="0" gradientUnits="userSpaceOnUse">
<stop stop-color="#30FBBA"/>
<stop offset="1" stop-color="#0492FD"/>
</linearGradient>
<linearGradient id="paint4_linear_463_90718" x1="0" y1="0" x2="141.977" y2="0" gradientUnits="userSpaceOnUse">
<stop stop-color="#30FBBA"/>
<stop offset="1" stop-color="#0492FD"/>
</linearGradient>
<linearGradient id="paint5_linear_463_90718" x1="0" y1="0" x2="141.977" y2="0" gradientUnits="userSpaceOnUse">
<stop stop-color="#30FBBA"/>
<stop offset="1" stop-color="#0492FD"/>
</linearGradient>
<linearGradient id="paint6_linear_463_90718" x1="0" y1="0" x2="141.977" y2="0" gradientUnits="userSpaceOnUse">
<stop stop-color="#30FBBA"/>
<stop offset="1" stop-color="#0492FD"/>
</linearGradient>
<clipPath id="clip0_463_90718">
<rect width="142" height="37.9035" fill="white"/>
</clipPath>
</defs>
</svg>
